<svg width="159" height="67" viewBox="0 0 159 67" fill="none" xmlns="http://www.w3.org/2000/svg">
<path d="M4.73393 62.6822C4.69147 62.8098 4.64901 63.0012 4.58533 63.299V63.3415L4.09708 64.9793L4.11831 65.0857L4.13953 65.3196L3.439 65.4685V65.3409C3.439 65.192 3.39654 65.0006 3.33286 64.8091L2.92952 63.7031L2.54741 64.9793L2.56864 65.0857L2.58987 65.3196L1.91056 65.4472V65.3196C1.91056 65.1495 1.86811 64.9793 1.80442 64.7879L1.12511 63.0437C1.06143 62.8736 1.01897 62.7885 1.01897 62.746C0.955288 62.6184 0.870375 62.5333 0.785461 62.5333V62.3418L1.46477 61.959L1.69828 62.746L1.95302 63.4479L2.33513 64.4901L2.69601 63.1926L2.63232 63.065C2.58987 62.9374 2.56864 62.8311 2.52618 62.7672C2.4625 62.6396 2.37758 62.5758 2.29267 62.5545V62.3631L2.97198 61.9803L3.03566 62.1504L3.88479 64.4688L4.07585 63.7669L4.24568 63.065C4.28813 62.7672 4.28813 62.5545 4.28813 62.3844L4.2669 62.1291H4.79761V62.2993C4.79761 62.3631 4.77638 62.512 4.73393 62.6822Z" fill="#0A0A2B"/>
<path d="M6.98412 65.511L6.72938 65.0643L6.64447 64.8729C6.28358 65.1706 5.9227 65.3408 5.58305 65.4046C5.45568 65.3621 5.32831 65.277 5.2434 65.1494C5.15848 65.043 5.11603 64.9154 5.11603 64.7665C5.11603 64.3411 5.49814 63.9157 6.26236 63.4903C6.17744 63.1713 6.13499 63.0224 6.13499 63.0011C6.0713 62.8097 5.98639 62.6608 5.85902 62.5757L5.62551 62.7671L5.47691 62.5545C5.60428 62.4268 5.79533 62.2567 6.02884 62.0652L6.15621 62.0227C6.32604 62.0227 6.49587 62.1503 6.66569 62.4056C6.75061 62.5332 6.85675 62.8948 6.98412 63.4903C7.13272 64.1071 7.32377 64.6176 7.57851 65.0218L6.98412 65.511ZM6.32604 63.8306L6.41095 63.8944H6.3685H6.32604C6.15621 63.8944 6.00762 63.9583 5.88025 64.0646C5.75288 64.171 5.68919 64.2986 5.68919 64.4687C5.68919 64.5964 5.79533 64.7665 5.98639 64.9579H6.02884C6.24113 64.9579 6.38973 64.7878 6.47464 64.4687L6.32604 63.8306Z" fill="#0A0A2B"/>
<path d="M8.74608 65.4686C8.47011 65.4686 8.25783 65.4048 8.10923 65.2772C8.00309 65.1921 7.93941 65.107 7.89695 64.9794C7.87572 64.8943 7.85449 64.788 7.85449 64.6178V64.4689L8.59748 64.4051L8.55503 64.6816C8.5338 64.8518 8.57625 65.0007 8.63994 65.0858C8.70362 65.1496 8.74608 65.1921 8.83099 65.1921C8.95836 65.1921 9.04328 65.1283 9.10696 65.0007C9.14942 64.8943 9.17065 64.788 9.17065 64.6604C9.17065 64.4902 9.00082 64.32 8.6824 64.1499L8.51257 64.0648C8.088 63.8096 7.87572 63.5543 7.87572 63.2991C7.87572 62.7886 8.13046 62.4057 8.61871 62.1718C8.6824 62.1292 8.78854 62.108 8.95836 62.0654C9.06451 62.0654 9.17065 62.108 9.29802 62.2143C9.42539 62.2994 9.59521 62.427 9.78627 62.6184L9.40416 63.3842L9.23433 63.2353V63.1077V63.0651C9.23433 62.98 9.14942 62.8524 8.97959 62.7248C8.80977 62.5972 8.6824 62.5334 8.57626 62.5334C8.5338 62.5334 8.49134 62.5546 8.42766 62.5972C8.40643 62.661 8.36397 62.7673 8.34274 62.9162C8.34274 63.0438 8.49134 63.1927 8.76731 63.3416C9.08573 63.5118 9.31925 63.6607 9.44662 63.7458C9.70136 63.9372 9.82872 64.1499 9.82872 64.3838C9.82872 64.7029 9.72258 64.9794 9.53153 65.1921C9.34047 65.3623 9.08573 65.4686 8.74608 65.4686Z" fill="#0A0A2B"/>
<path d="M11.2298 65.4686C10.9538 65.4686 10.7415 65.4048 10.5929 65.2772C10.4868 65.1921 10.4231 65.107 10.3807 64.9794C10.3594 64.8943 10.3382 64.788 10.3382 64.6178V64.4689L11.0812 64.4051L11.0387 64.6816C11.0175 64.8518 11.06 65.0007 11.1236 65.0858C11.1873 65.1496 11.2298 65.1921 11.3147 65.1921C11.4421 65.1921 11.527 65.1283 11.5907 65.0007C11.6331 64.8943 11.6544 64.788 11.6544 64.6604C11.6544 64.4902 11.4845 64.32 11.1661 64.1499L10.9963 64.0648C10.5717 63.8096 10.3594 63.5543 10.3594 63.2991C10.3594 62.7886 10.6142 62.4057 11.1024 62.1718C11.1661 62.1292 11.2722 62.108 11.4421 62.0654C11.5482 62.0654 11.6544 62.108 11.7817 62.2143C11.9091 62.2994 12.0789 62.427 12.27 62.6184L11.8879 63.3842L11.718 63.2353V63.1077V63.0651C11.718 62.98 11.6331 62.8524 11.4633 62.7248C11.2935 62.5972 11.1661 62.5334 11.06 62.5334C11.0175 62.5334 10.975 62.5546 10.9114 62.5972C10.8901 62.661 10.8477 62.7673 10.8264 62.9162C10.8264 63.0438 10.975 63.1927 11.251 63.3416C11.5694 63.5118 11.803 63.6607 11.9303 63.7458C12.1851 63.9372 12.3124 64.1499 12.3124 64.3838C12.3124 64.7029 12.2063 64.9794 12.0152 65.1921C11.8242 65.3623 11.5694 65.4686 11.2298 65.4686Z" fill="#0A0A2B"/>
<path d="M14.966 65.0858C14.8599 65.1921 14.7113 65.2984 14.499 65.3623C14.3291 65.4048 14.1381 65.4473 13.9683 65.4899C13.5649 65.4261 13.2677 65.2346 13.0554 64.8943C12.8644 64.5965 12.7795 64.2562 12.7795 63.8734C12.7795 63.4054 12.9069 63.0226 13.1404 62.7248C13.3526 62.4696 13.7135 62.2356 14.223 62.0654C14.5414 62.0654 14.8599 62.2569 15.1995 62.6397L14.7325 63.1077C14.5839 62.9162 14.4141 62.7461 14.2442 62.6397C14.1169 62.5546 14.0107 62.4908 13.947 62.4908C13.8409 62.4908 13.756 62.5759 13.6498 62.7461C13.5862 62.8737 13.5437 63.0013 13.5012 63.1289C13.48 63.2353 13.4588 63.3629 13.4588 63.4905L14.4141 63.5118C14.499 63.5118 14.5627 63.5118 14.6051 63.4905C14.6688 63.4692 14.7749 63.4054 14.8811 63.3204L14.9872 63.5756C14.7325 63.767 14.5202 63.8946 14.3079 63.9159C14.2442 63.9372 13.9683 63.9372 13.48 63.9372C13.5012 64.1924 13.6074 64.4477 13.7984 64.7029C13.9895 64.9369 14.1805 65.0432 14.3716 65.0432C14.5414 65.0432 14.6688 64.7667 14.7749 64.2137L15.242 64.4264C15.1571 64.7454 15.0721 64.9581 14.966 65.0858Z" fill="#0A0A2B"/>
<path d="M16.452 64.5325V65.3195L15.7939 65.4472L15.8151 63.0649L15.7939 62.8948C15.7726 62.7672 15.7514 62.6395 15.709 62.5332L15.624 62.5119L15.5604 62.2779L16.3246 62.044L16.4307 62.4268C16.6642 62.2354 16.8553 62.1078 17.0251 62.0227C17.3648 62.0652 17.6407 62.1929 17.8318 62.4481C18.0016 62.6608 18.0865 62.9373 18.0865 63.2776C18.0865 63.7456 17.8318 64.0859 17.3223 64.3198C17.662 64.8516 17.9167 65.1068 18.0865 65.1068H18.129L18.2564 65.0856V65.3195C18.1502 65.4046 18.0016 65.4472 17.8318 65.4472C17.7681 65.4472 17.7257 65.4472 17.6832 65.4472C17.4921 65.4472 17.3011 65.3621 17.11 65.1919C17.0039 65.1068 16.8765 64.9367 16.7067 64.724L16.6642 64.6602C16.5581 64.6389 16.5156 64.5964 16.452 64.5325ZM16.452 64.256H16.4944C16.7704 64.256 16.9614 64.1922 17.1313 64.0646C17.2799 63.937 17.3648 63.7456 17.3648 63.4903C17.3648 63.2564 17.3011 63.0224 17.1525 62.831C17.0251 62.6395 16.8765 62.5545 16.7279 62.5545C16.7067 62.5545 16.6642 62.5757 16.6218 62.597C16.5793 62.6821 16.5369 62.7884 16.5156 62.9373C16.4732 63.1075 16.452 63.2776 16.452 63.4265V64.256Z" fill="#0A0A2B"/>
<path d="M19.4664 65.4686C19.1904 65.4686 18.9781 65.4048 18.8295 65.2772C18.7234 65.1921 18.6597 65.107 18.6172 64.9794C18.596 64.8943 18.5748 64.788 18.5748 64.6178V64.4689L19.3178 64.4051L19.2753 64.6816C19.2541 64.8518 19.2965 65.0007 19.3602 65.0858C19.4239 65.1496 19.4664 65.1921 19.5513 65.1921C19.6786 65.1921 19.7636 65.1283 19.8272 65.0007C19.8697 64.8943 19.8909 64.788 19.8909 64.6604C19.8909 64.4902 19.7211 64.32 19.4027 64.1499L19.2328 64.0648C18.8083 63.8096 18.596 63.5543 18.596 63.2991C18.596 62.7886 18.8507 62.4057 19.339 62.1718C19.4027 62.1292 19.5088 62.108 19.6786 62.0654C19.7848 62.0654 19.8909 62.108 20.0183 62.2143C20.1457 62.2994 20.3155 62.427 20.5065 62.6184L20.1244 63.3842L19.9546 63.2353V63.1077V63.0651C19.9546 62.98 19.8697 62.8524 19.6999 62.7248C19.53 62.5972 19.4027 62.5334 19.2965 62.5334C19.2541 62.5334 19.2116 62.5546 19.1479 62.5972C19.1267 62.661 19.0842 62.7673 19.063 62.9162C19.063 63.0438 19.2116 63.1927 19.4876 63.3416C19.806 63.5118 20.0395 63.6607 20.1669 63.7458C20.4216 63.9372 20.549 64.1499 20.549 64.3838C20.549 64.7029 20.4429 64.9794 20.2518 65.1921C20.0608 65.3623 19.7848 65.4686 19.4664 65.4686Z" fill="#0A0A2B"/>
<path d="M21.1009 62.597H21.016L20.9736 62.3418L21.6953 62.0865L21.7378 62.1929C21.7802 62.3205 21.8227 62.4481 21.8439 62.5545C22.0987 62.2779 22.3322 62.1078 22.5869 62.0227C22.9053 62.0652 23.1601 62.2567 23.3724 62.5545C23.5846 62.8522 23.6908 63.1925 23.6908 63.5754C23.6908 64.0859 23.5846 64.49 23.3724 64.7878C23.1601 65.0856 22.7992 65.3408 22.2897 65.4897C22.1836 65.4684 22.0987 65.4471 22.0138 65.4046C21.9925 65.4046 21.9501 65.3621 21.8652 65.3195L21.8439 65.2983V66.5532L21.1859 66.7659L21.2071 63.1075C21.2071 63.0862 21.2071 63.0649 21.2071 63.0224C21.2071 63.0011 21.1859 62.9798 21.1859 62.9373L21.1009 62.597ZM22.7992 62.916C22.6294 62.6608 22.4595 62.5332 22.2685 62.5332C22.0138 62.7246 21.8864 62.9373 21.8864 63.15V64.5964C21.9501 64.7665 22.1411 64.9579 22.502 65.1494C22.6506 65.1494 22.7992 65.0217 22.8841 64.8091C22.9903 64.5538 23.0539 64.2348 23.0539 63.8094C23.0539 63.4691 22.969 63.1713 22.7992 62.916Z" fill="#0A0A2B"/>
<path d="M26.2806 65.0858C26.1745 65.1921 26.0259 65.2984 25.8136 65.3623C25.6438 65.4048 25.4527 65.4473 25.2829 65.4899C24.8796 65.4261 24.5824 65.2346 24.3701 64.8943C24.179 64.5965 24.0941 64.2562 24.0941 63.8734C24.0941 63.4054 24.2215 63.0226 24.455 62.7248C24.6673 62.4696 25.0282 62.2356 25.5376 62.0654C25.8561 62.0654 26.1745 62.2569 26.5141 62.6397L26.0471 63.1077C25.8985 62.9162 25.7287 62.7461 25.5589 62.6397C25.4315 62.5546 25.3254 62.4908 25.2617 62.4908C25.1555 62.4908 25.0706 62.5759 24.9645 62.7461C24.9008 62.8737 24.8583 63.0013 24.8159 63.1289C24.7947 63.2353 24.7734 63.3629 24.7734 63.4905L25.7287 63.5118C25.8136 63.5118 25.8773 63.5118 25.9197 63.4905C25.9834 63.4692 26.0896 63.4054 26.1957 63.3204L26.3019 63.5756C26.0471 63.767 25.8348 63.8946 25.6226 63.9159C25.5589 63.9372 25.2829 63.9372 24.7947 63.9372C24.8159 64.1924 24.922 64.4477 25.1131 64.7029C25.3041 64.9369 25.4952 65.0432 25.6862 65.0432C25.8561 65.0432 25.9834 64.7667 26.0896 64.2137L26.5566 64.4264C26.4717 64.7454 26.3868 64.9581 26.2806 65.0858Z" fill="#0A0A2B"/>
<path d="M27.0873 65.4472V63.0649C27.0873 62.6608 27.0661 62.4481 27.0449 62.4268C26.9812 62.3843 26.9387 62.2992 26.9175 62.1929L27.7666 62.0227V65.2557L27.0873 65.4472Z" fill="#0A0A2B"/>
<path d="M30.5688 65.0858C30.4626 65.1921 30.314 65.2984 30.1018 65.3623C29.9319 65.4048 29.7409 65.4473 29.5711 65.4899C29.1677 65.4261 28.8705 65.2346 28.6582 64.8943C28.4672 64.5965 28.3823 64.2562 28.3823 63.8734C28.3823 63.4054 28.5096 63.0226 28.7431 62.7248C28.9554 62.4696 29.3163 62.2356 29.8258 62.0654C30.1442 62.0654 30.4626 62.2569 30.8023 62.6397L30.3353 63.1077C30.1867 62.9162 30.0168 62.7461 29.847 62.6397C29.7196 62.5546 29.6135 62.4908 29.5498 62.4908C29.4437 62.4908 29.3588 62.5759 29.2526 62.7461C29.1889 62.8737 29.1465 63.0013 29.104 63.1289C29.0828 63.2353 29.0616 63.3629 29.0616 63.4905L30.0168 63.5118C30.1018 63.5118 30.1654 63.5118 30.2079 63.4905C30.2716 63.4692 30.3777 63.4054 30.4839 63.3204L30.59 63.5756C30.3353 63.767 30.123 63.8946 29.9107 63.9159C29.847 63.9372 29.571 63.9372 29.0828 63.9372C29.104 64.1924 29.2102 64.4477 29.4012 64.7029C29.5923 64.9369 29.7833 65.0432 29.9744 65.0432C30.1442 65.0432 30.2716 64.7667 30.3777 64.2137L30.8447 64.4264C30.7598 64.7454 30.6749 64.9581 30.5688 65.0858Z" fill="#0A0A2B"/>
<path d="M32.0336 64.5325V65.3195L31.3755 65.4472L31.3967 63.0649L31.3755 62.8948C31.3543 62.7672 31.333 62.6395 31.2906 62.5332L31.2057 62.5119L31.142 62.2779L31.9062 62.044L32.0123 62.4268C32.2458 62.2354 32.4369 62.1078 32.6067 62.0227C32.9464 62.0652 33.2223 62.1929 33.4134 62.4481C33.5832 62.6608 33.6681 62.9373 33.6681 63.2776C33.6681 63.7456 33.4134 64.0859 32.9039 64.3198C33.2436 64.8516 33.4983 65.1068 33.6681 65.1068H33.7106L33.838 65.0856V65.3195C33.7318 65.4046 33.5832 65.4472 33.4134 65.4472C33.3497 65.4472 33.3073 65.4472 33.2648 65.4472C33.0737 65.4472 32.8827 65.3621 32.6916 65.1919C32.5855 65.1068 32.4581 64.9367 32.2883 64.724L32.2458 64.6602C32.1609 64.6389 32.0972 64.5964 32.0336 64.5325ZM32.0548 64.256H32.0972C32.3732 64.256 32.5643 64.1922 32.7341 64.0646C32.8827 63.937 32.9676 63.7456 32.9676 63.4903C32.9676 63.2564 32.9039 63.0224 32.7553 62.831C32.628 62.6395 32.4794 62.5545 32.3308 62.5545C32.3095 62.5545 32.2671 62.5757 32.2246 62.597C32.1822 62.6821 32.1397 62.7884 32.1185 62.9373C32.076 63.1075 32.0548 63.2776 32.0548 63.4265V64.256Z" fill="#0A0A2B"/>
<path d="M42.4141 50.431V42.1358C42.4141 42.1145 42.4566 41.9869 42.5415 41.7529C42.6264 41.4977 42.6901 41.3275 42.7325 41.2212C42.775 41.1361 42.8175 41.0297 42.9024 40.8808C42.9661 40.7107 43.0085 40.6256 43.0297 40.6043C43.2208 40.3704 43.4968 40.0939 43.8364 39.7535C44.1761 39.4132 44.5157 39.0729 44.8554 38.7539C45.195 38.4135 45.471 38.137 45.7045 37.9031C45.938 37.6691 46.0654 37.5627 46.0866 37.5627H50.396C50.5446 37.5627 50.6295 37.6478 50.6507 37.7967C50.672 37.9456 50.6932 38.0519 50.6932 38.1583C50.6932 38.3923 50.6295 38.7539 50.5234 39.2431C50.4172 39.7323 50.2474 40.2215 50.0563 40.7107C49.8653 41.1999 49.6318 41.604 49.3558 41.9656C49.0798 42.3272 48.8039 42.4973 48.5491 42.4973H48.2095C48.1882 42.391 48.1458 42.2421 48.1033 42.0081C48.0609 41.7742 47.9972 41.5189 47.9547 41.2637C47.9123 40.9872 47.8274 40.7532 47.7424 40.5193C47.6575 40.2853 47.6151 40.1151 47.5938 40.0088C47.5514 39.8386 47.4665 39.7535 47.3603 39.7323C47.233 39.711 47.0844 39.6897 46.9145 39.6897H46.5537H46.5324H46.1928C46.0442 39.6897 45.8956 39.711 45.7257 39.7323C45.5559 39.7535 45.4922 39.8599 45.4922 40.0088V49.878C45.4922 50.6862 45.7045 51.3456 46.1503 51.8561C46.5961 52.3666 47.233 52.6218 48.0821 52.6218C48.4642 52.6218 48.7826 52.4942 48.9949 52.2602C49.2284 52.005 49.4407 51.7497 49.6105 51.4519C49.8016 51.1542 49.9927 50.8989 50.2049 50.6437C50.4172 50.3885 50.7144 50.2608 51.0965 50.2608C51.0965 50.6224 51.0328 51.0053 50.9055 51.4732C50.7781 51.9199 50.6083 52.3453 50.396 52.7494C50.1837 53.1535 49.929 53.5151 49.6105 53.8342C49.3133 54.1532 48.9737 54.3659 48.5704 54.4723L46.8509 54.5361C46.2352 54.5361 45.6621 54.451 45.1101 54.3021C44.5794 54.132 44.0912 53.8767 43.6878 53.5577C43.2845 53.2173 42.9661 52.8132 42.7325 52.3027C42.5415 51.7285 42.4141 51.1329 42.4141 50.431Z" fill="#0A0A2B"/>
<path d="M76.5492 13.23C76.528 13.23 76.5068 13.23 76.4643 13.23H76.1671C76.061 13.23 75.8911 13.2513 75.6364 13.2726C75.3817 13.2938 75.1057 13.3151 74.8297 13.3364C74.5325 13.3364 74.2141 13.3789 73.8957 13.4214C73.5772 13.4427 73.2588 13.4852 72.9616 13.5065C72.6432 13.5278 72.3885 13.5491 72.155 13.5703C71.9214 13.5916 71.7516 13.5916 71.6455 13.5916V13.7618V13.8894C71.6667 13.9106 71.6879 13.9532 71.7304 14.0383C71.7516 14.1021 71.7941 14.1659 71.8153 14.2297C71.8365 14.2935 71.879 14.3786 71.9214 14.4849C71.9639 14.5913 72.0276 14.7189 72.0913 14.8465C72.155 14.9741 72.1974 15.1018 72.2611 15.2294C72.3035 15.357 72.3248 15.4421 72.3248 15.5272V19.0154V19.0367V19.0154C72.3248 18.9941 72.346 18.9729 72.3672 18.9516V28.0125C72.346 28.2678 72.2823 28.5018 72.1762 28.7144C72.07 28.9059 71.9639 29.1186 71.8578 29.31C71.7516 29.5014 71.6455 29.6929 71.5181 29.9056C71.412 30.097 71.3695 30.2884 71.3695 30.4798H74.766L75.3604 29.863L75.2755 24.184L75.4029 15.5272C75.4029 15.5059 75.4029 15.4846 75.4029 15.4633C75.4666 15.4633 75.509 15.4633 75.5515 15.4633C75.9124 15.4633 76.252 15.5059 76.6129 15.5697C76.9525 15.6335 77.2497 15.7611 77.5257 15.9525C77.5469 15.9525 77.5469 15.9738 77.5682 15.9738C77.6106 16.0376 77.6531 16.1014 77.6743 16.1865C77.8229 16.4843 77.9503 16.8033 78.014 17.1437C78.0989 17.484 78.1413 17.803 78.1626 18.1221L78.3324 28.8208C78.3961 28.9484 78.4385 29.1186 78.481 29.31C78.5234 29.4802 78.5871 29.6716 78.672 29.8418C78.7357 30.0119 78.8206 30.1608 78.9056 30.2884C79.0117 30.416 79.1391 30.4586 79.3301 30.4586H80.3915C80.5614 30.4798 80.6887 30.4373 80.7736 30.331C80.8586 30.2246 80.9435 30.097 81.0072 29.9268C81.0921 29.7567 81.1557 29.5652 81.177 29.3951C81.2194 29.2249 81.2619 29.076 81.3256 28.9697V17.7605C81.3256 17.3138 81.4105 16.931 81.5591 16.6545C81.7289 16.3567 81.9412 16.1227 82.1959 15.9525C82.4719 15.7824 82.7691 15.6548 83.1088 15.5697C83.4696 15.5059 83.8093 15.4633 84.1702 15.4633C84.2126 15.4633 84.2975 15.4633 84.4249 15.4846C84.5523 15.4846 84.6796 15.5059 84.8282 15.5059C84.9981 15.5059 85.1254 15.5059 85.2528 15.5272C85.3802 15.5272 85.4439 15.5484 85.4651 15.5484C85.3165 15.6973 85.1891 15.8462 85.0405 16.0376C84.9132 16.2078 84.7858 16.3992 84.6584 16.5906C84.531 16.7821 84.4249 16.9735 84.34 17.1862C84.2551 17.3776 84.1914 17.5903 84.1489 17.7818V18.2922V19.3983V20.9722C84.1489 21.5465 84.1489 22.1208 84.1702 22.7164C84.1702 23.3119 84.1914 23.9075 84.1914 24.503V26.1833V27.4808V28.204C84.34 28.7357 84.5311 29.1824 84.7221 29.4802C84.9344 29.7779 85.2104 30.0119 85.5075 30.1821C85.826 30.3522 86.1869 30.4373 86.6114 30.4586C87.0572 30.4798 87.5455 30.5011 88.0974 30.5011C88.0974 30.2671 88.0549 30.0119 87.97 29.7567C87.9063 29.5014 87.8214 29.2462 87.7365 29.0122C87.6516 28.7783 87.5667 28.523 87.4818 28.2891C87.3969 28.0338 87.3544 27.7786 87.3544 27.5446V15.5059C87.3544 15.4208 87.3756 15.3357 87.4181 15.2081C87.4606 15.0805 87.5242 14.9529 87.5879 14.8252C87.6516 14.6976 87.6941 14.57 87.7578 14.4637C87.8002 14.3573 87.8427 14.2722 87.8639 14.2084C87.8851 14.1446 87.9063 14.0808 87.9488 14.017C87.97 13.9319 88.0125 13.8894 88.0337 13.8681V13.7405V13.5703C87.9276 13.5703 87.7577 13.5703 87.5242 13.5491C87.2907 13.5278 87.0148 13.5065 86.7176 13.4852C86.4204 13.464 86.1019 13.4427 85.7835 13.4002C85.4651 13.3576 85.1467 13.3364 84.8495 13.3151C84.5523 13.3151 84.2975 13.2938 84.0428 13.2513C83.7881 13.23 83.6182 13.2087 83.5121 13.2087H83.2149C82.8965 13.2087 82.6205 13.2938 82.387 13.464C82.1535 13.6341 81.9412 13.8256 81.7501 14.0595C81.5803 14.2722 81.4105 14.5275 81.2619 14.7827C81.1345 15.0379 81.0072 15.2719 80.9222 15.5059C80.6887 15.0167 80.3915 14.6125 80.0731 14.2935C79.7547 13.9745 79.415 13.7618 79.0754 13.6129C78.7357 13.464 78.3536 13.3576 77.9503 13.2938C77.5469 13.23 77.0799 13.2087 76.5704 13.2087C76.5917 13.23 76.5704 13.23 76.5492 13.23Z" fill="#0A0A2B"/>
<path d="M60.437 13.8468C60.437 13.8894 60.3945 14.017 60.352 14.2297L60.3308 16.7395C60.6917 16.7395 60.9677 16.6757 61.2224 16.5694C61.4771 16.4418 61.7319 16.3142 62.0078 16.1865C62.2838 16.0376 62.5598 15.91 62.8782 15.8037C63.1966 15.6973 63.5787 15.6335 64.0458 15.6335H64.3854C64.534 15.6335 64.6826 15.6335 64.8312 15.6548C65.001 15.6548 65.1496 15.6761 65.277 15.6761H65.5954C65.744 15.7611 65.8714 15.91 65.9988 16.1227C66.1474 16.3142 66.211 16.4843 66.211 16.6119V27.0767C66.211 27.5446 66.1261 27.9275 65.9775 28.2253C65.8289 28.5018 65.553 28.6507 65.1284 28.6507C64.9161 28.6507 64.7038 28.5868 64.4916 28.4805C64.3005 28.3742 64.1307 28.2253 63.9821 28.0338C63.8335 27.8424 63.7061 27.6297 63.6 27.3957C63.4938 27.183 63.4514 26.9703 63.4514 26.7576V18.1008C63.5363 17.803 63.6212 17.2713 63.6849 16.931C63.7698 16.8246 63.8123 16.5056 63.8123 16.2078C63.3877 16.2078 62.9631 16.3142 62.5598 16.5056C62.1564 16.697 61.8592 16.8884 61.4347 17.2075C61.1375 17.4202 60.6917 17.6967 60.5643 17.9732C60.3733 18.3773 60.3733 18.7389 60.3733 19.1643V27.7148C60.3733 27.9062 60.4369 28.1827 60.5643 28.5018C60.7129 28.8208 60.8827 29.1186 61.0738 29.4164C61.2861 29.6929 61.5196 29.9481 61.7743 30.1608C62.0291 30.3522 62.2838 30.4586 62.5386 30.4586H65.8926C66.211 30.4586 66.5507 30.3097 66.9328 29.9907C67.3149 29.6716 67.6758 29.2675 68.0155 28.7995C68.3763 28.3103 68.6523 27.8211 68.907 27.3319C69.1618 26.8427 69.2892 26.4386 69.2892 26.1195V15.6973C69.2892 15.5272 69.2467 15.3145 69.183 15.0592C69.1193 14.8253 69.0132 14.5913 68.8646 14.3573C68.7372 14.1234 68.5886 13.9319 68.3976 13.783C68.2065 13.6342 67.9942 13.5491 67.7607 13.5491H60.8191C60.7766 13.5491 60.7129 13.5916 60.628 13.6554C60.5006 13.7405 60.4582 13.8043 60.437 13.8468Z" fill="#0A0A2B"/>
<path d="M68.9283 37.8603C68.9283 37.9028 68.8858 38.0305 68.8434 38.2432L68.8221 40.753C69.183 40.753 69.459 40.6892 69.7137 40.5828C69.9685 40.4552 70.2232 40.3276 70.4992 40.2C70.7751 40.0511 71.0511 39.9235 71.3695 39.8171C71.688 39.7108 72.0701 39.647 72.5371 39.647H72.8767C73.0253 39.647 73.1739 39.647 73.3225 39.6682C73.4924 39.6682 73.641 39.6895 73.7683 39.6895H74.0868C74.2354 39.7746 74.3627 39.9235 74.4901 40.1362C74.6387 40.3276 74.7024 40.4978 74.7024 40.6254V51.0901C74.7024 51.5581 74.6175 51.9409 74.4689 52.2387C74.3203 52.5152 74.0443 52.6641 73.6197 52.6641C73.4074 52.6641 73.1952 52.6003 72.9829 52.494C72.7918 52.3876 72.622 52.2387 72.4734 52.0473C72.3248 51.8559 72.1974 51.6432 72.0913 51.4092C71.9852 51.1965 71.9427 50.9838 71.9427 50.7711V42.1143C72.0276 41.8165 72.1125 41.2848 72.1762 40.9444C72.2611 40.8381 72.3036 40.519 72.3036 40.2213C71.879 40.2213 71.4545 40.3276 71.0511 40.519C70.6478 40.7105 70.3506 40.9019 69.926 41.2209C69.6288 41.4336 69.183 41.7101 69.0556 41.9867C68.8646 42.3908 68.8646 42.7524 68.8646 43.1778V51.7282C68.8646 51.9197 68.9283 52.1962 69.0556 52.5152C69.2042 52.8343 69.3741 53.1321 69.5651 53.4298C69.7774 53.7063 70.0109 53.9616 70.2657 54.1743C70.5204 54.3657 70.7751 54.4721 71.0299 54.4721H74.384C74.7024 54.4721 75.042 54.3232 75.4241 54.0041C75.8062 53.6851 76.1671 53.2809 76.5068 52.813C76.8677 52.3238 77.1436 51.8346 77.3984 51.3454C77.6531 50.8562 77.7805 50.4521 77.7805 50.133V39.6895C77.7805 39.4981 77.738 39.3067 77.6743 39.0514C77.6107 38.8175 77.5045 38.5835 77.3559 38.3495C77.2285 38.1155 77.0799 37.9241 76.8889 37.7752C76.6978 37.6263 76.4856 37.5413 76.252 37.5413H69.3104C69.2679 37.5413 69.2043 37.5838 69.1193 37.6476C68.992 37.7752 68.9495 37.8178 68.9283 37.8603Z" fill="#0A0A2B"/>
<path d="M57.656 32.1602C57.5287 32.5005 57.465 32.8195 57.465 33.1173C57.465 33.2449 57.5074 33.33 57.5711 33.3938C57.6348 33.4789 57.7197 33.5427 57.8046 33.6278C57.8895 33.6916 57.9744 33.7767 58.0381 33.8617C58.1018 33.9468 58.1443 34.0744 58.1443 34.2021C58.1443 34.4786 58.0169 34.5849 57.8683 34.6487C57.7197 34.7338 57.2739 34.7551 56.9979 34.7551C56.2337 34.7551 55.3209 34.7551 55.2148 34.6487V30.4586H46.681L45.9168 30.4798L45.8743 34.6275C45.7682 34.7338 45.004 34.7338 44.2397 34.7338C43.9638 34.7338 43.518 34.7125 43.3694 34.6275C43.2208 34.5637 43.0934 34.4573 43.0934 34.1808C43.0934 34.0319 43.1359 33.9256 43.1996 33.8405C43.2845 33.7554 43.3694 33.6916 43.4331 33.6065C43.518 33.5427 43.5817 33.4576 43.6666 33.3725C43.7303 33.3087 43.7727 33.2024 43.7727 33.096C43.7727 32.777 43.709 32.4579 43.5817 32.1389C43.4543 31.8198 43.3057 31.4795 43.1359 31.1392C42.9661 30.7989 42.8811 30.4586 42.7325 30.1183V28.6506C42.7538 28.4379 42.8599 28.3103 43.051 28.3103H44.9191V15.6548C44.9191 15.1443 45.0677 14.6338 45.3648 14.1233C45.662 13.5916 46.0442 13.1237 46.4899 12.7195C46.9357 12.2941 47.4452 11.9538 47.9759 11.6986C48.5066 11.4433 49.0373 11.3157 49.5256 11.3157C49.5256 11.571 49.4619 11.8049 49.3558 12.0176C49.2284 12.209 49.101 12.4217 48.9312 12.6344C48.7614 12.8259 48.6128 13.0598 48.443 13.3151C48.3368 13.5278 48.167 14.336 48.167 15.8887L48.2307 28.3529H52.7947V15.3783C52.7947 15.0805 52.7947 14.7402 52.816 14.3998C52.816 14.0383 52.8372 13.6979 52.8372 13.3789V10.4862C52.0305 10.3586 50.12 10.4011 49.2709 10.4224C48.4642 10.4224 47.7849 10.55 47.2329 10.784C46.4687 11.1668 45.3224 11.9538 44.4945 12.2941C44.1336 12.443 43.5817 12.3154 43.5392 12.3154V8.72079C43.5392 8.65698 43.5392 8.52936 43.5604 8.2954C43.5817 8.06143 43.6878 7.95508 43.8576 7.95508H53.0707C53.5802 7.95508 54.0472 8.10397 54.4506 8.40174C54.8539 8.67825 55.1935 9.03984 55.4483 9.46524C55.7243 9.89063 55.9153 10.3586 56.0639 10.8903C56.2125 11.4008 56.2974 11.8475 56.2974 12.2941V28.3529H58.2504C58.4415 28.3529 58.4839 28.6719 58.5052 28.8846V30.1608C58.3566 30.5011 58.2716 30.8202 58.1018 31.1818C57.9532 31.5008 57.8046 31.8411 57.656 32.1602Z" fill="#0A0A2B"/>
<path d="M79.2665 37.5203H82.1323C82.1535 37.5203 82.196 37.5628 82.2597 37.6266C82.3234 37.6904 82.387 37.7542 82.4295 37.7968C82.472 37.8606 82.5356 37.9669 82.6206 38.1158C82.7267 38.2647 82.8116 38.4136 82.8965 38.5838C82.9814 38.7539 83.0663 38.9028 83.13 39.0517C83.1937 39.2006 83.2574 39.3069 83.3211 39.392C83.3635 39.3495 83.4272 39.1793 83.5546 38.9028C83.6607 38.605 83.8306 38.3072 84.0216 38.0095C84.2339 37.6904 84.4037 37.5415 84.5523 37.5415H87.9701C88.0762 37.5415 88.2036 37.5841 88.3522 37.6479C88.522 37.7117 88.6494 37.818 88.7555 37.9669C88.8617 38.0946 88.9678 38.2222 89.0527 38.3498C89.1589 38.4774 89.2013 38.6263 89.2013 38.7752V50.112C89.2013 50.5374 89.0103 50.9841 88.6706 51.4307C88.3097 51.8774 87.9064 52.3241 87.4394 52.7282C86.9724 53.1323 86.5053 53.5365 86.0171 53.898C85.5288 54.2596 85.1467 54.5361 84.9132 54.7488L84.7646 54.8339C84.7434 54.8339 84.6797 54.8126 84.5736 54.7488C84.5311 54.7276 84.4674 54.6638 84.34 54.5787C84.2339 54.4936 84.1065 54.4085 83.9579 54.3234C83.8306 54.2384 83.7032 54.1533 83.5971 54.0469C83.4909 53.9406 83.406 53.8555 83.3423 53.813V54.1533C83.3848 54.3447 83.4272 54.6212 83.5121 54.9615C83.5758 55.3018 83.6607 55.6634 83.7244 56.025C83.7881 56.3866 83.873 56.7695 83.9367 57.1311C84.0216 57.4926 84.0641 57.833 84.0641 58.1307H79.9246C79.9246 57.8542 79.9458 57.599 80.0095 57.3225C80.0732 57.0672 80.1581 56.812 80.2854 56.578V51.0479C79.967 50.899 79.7972 50.7501 79.7335 50.6012C79.6698 50.4311 79.6486 50.2184 79.6486 49.9419C79.6486 49.6441 79.691 49.4101 79.776 49.1974C79.8609 48.9847 80.0307 48.772 80.3279 48.5806V43.5184C80.3279 42.8165 80.3067 42.0933 80.2854 41.3488C80.2642 40.6044 80.1581 39.9238 79.9882 39.3707C79.9033 39.0092 79.8184 38.7752 79.7547 38.6476C79.6698 38.4987 79.5849 38.3923 79.5212 38.3073C79.4575 38.2222 79.3938 38.1158 79.3514 38.0307C79.2877 37.9031 79.2665 37.733 79.2665 37.5203ZM83.2999 43.5822C83.2999 43.9438 83.2999 44.2628 83.3211 44.5606C83.3423 44.8584 83.3423 45.1136 83.3423 45.3476V46.1133C83.3848 46.4111 83.4272 46.7726 83.4485 47.2193C83.4697 47.666 83.5121 48.1126 83.5334 48.538C83.5546 48.9634 83.6183 49.4739 83.6607 50.0695C84.892 51.3031 85.5288 51.9199 85.5501 51.9412C85.5713 51.9412 85.5925 51.9625 85.635 51.9625C85.6562 51.9625 85.6987 51.9625 85.7836 51.9412C85.826 51.9199 85.8897 51.8774 85.9746 51.8136C86.0808 51.7498 86.1232 51.7072 86.1232 51.686V39.9876C86.1232 39.8599 86.0595 39.7749 85.9534 39.7323C85.8473 39.6898 85.7623 39.6472 85.6562 39.6472C85.5501 39.6472 85.4651 39.626 85.359 39.626C85.2316 39.626 85.168 39.626 85.1255 39.626C84.7222 39.626 84.3825 39.7536 84.1278 40.0088C83.8942 40.2428 83.7032 40.5619 83.5971 40.966C83.4909 41.3488 83.406 41.7955 83.3423 42.2634C83.3211 42.7101 83.2999 43.1568 83.2999 43.5822Z" fill="#0A0A2B"/>
<path d="M91.0269 37.584L99.6456 37.5627V41.051C99.6456 41.0935 99.6031 41.1573 99.5182 41.2212C99.4333 41.285 99.3909 41.3488 99.3696 41.3913C99.2423 41.4126 99.1786 41.4126 99.1574 41.4126C98.9663 41.4126 98.7965 41.3062 98.6054 41.1148C98.4144 40.9021 98.1809 40.6681 97.9261 40.4342C97.6714 40.1789 97.3742 39.9662 97.0345 39.7535C96.6949 39.5408 96.2915 39.4345 95.8457 39.4345C95.8033 39.4345 95.7608 39.4558 95.7184 39.477C95.6759 39.4983 95.6122 39.5408 95.5485 39.5621C95.4212 39.6046 95.315 39.7535 95.2301 39.9875C95.1452 40.2215 95.1028 40.498 95.0815 40.8383C95.0603 41.1786 95.0603 41.5189 95.0603 41.9018C95.0603 42.2634 95.1028 42.625 95.1452 42.9653L95.2301 52.3666C95.2301 52.5367 95.2726 52.7281 95.3575 52.8983C95.4424 53.0685 95.5273 53.2386 95.591 53.43C95.6547 53.6002 95.7396 53.7704 95.8033 53.9618C95.867 54.132 95.9094 54.3234 95.9094 54.5148H93.1073C93.0224 54.5148 92.9375 54.4723 92.8101 54.3659C92.704 54.2596 92.619 54.1532 92.5341 54.0043C92.4704 53.8554 92.4068 53.7066 92.3431 53.5789C92.2794 53.43 92.2369 53.345 92.2157 53.2812V52.4729C92.2157 52.1113 92.2157 51.6859 92.2369 51.2393C92.2369 50.7926 92.2582 50.3034 92.2582 49.7716V48.0913C92.2582 47.5596 92.2582 47.0278 92.2582 46.5173C92.2582 46.0069 92.2582 45.4964 92.2369 44.9646C92.2157 43.9862 92.1945 43.0078 92.1732 42.0294C92.152 41.051 92.0671 40.1151 91.9185 39.2643C91.9185 39.2431 91.876 39.158 91.7911 38.9878C91.7062 38.8177 91.6001 38.6262 91.4727 38.4348C91.3666 38.2221 91.2604 38.0307 91.1755 37.8605C91.0694 37.6904 91.0269 37.584 91.0269 37.584Z" fill="#0A0A2B"/>
<path d="M101.492 37.4775C101.535 37.4775 101.641 37.4775 101.832 37.4988C102.023 37.4988 102.235 37.5201 102.469 37.5201C102.703 37.5201 102.915 37.5413 103.106 37.5413C103.297 37.5413 103.446 37.5413 103.488 37.5413C103.573 37.5413 103.7 37.5626 103.87 37.6264C104.061 37.6902 104.252 37.7753 104.464 37.8604C104.677 37.9667 104.868 38.0731 105.038 38.1794C105.207 38.2858 105.292 38.3709 105.292 38.4772V50.7499C105.292 50.8988 105.377 51.0051 105.526 51.1328C105.696 51.2391 105.887 51.3455 106.057 51.4731C106.248 51.5794 106.46 51.6645 106.651 51.7071C106.863 51.7496 107.012 51.7921 107.097 51.7921C107.139 51.7921 107.224 51.7921 107.373 51.7709C107.479 51.7283 107.564 51.6645 107.67 51.5582C107.776 51.4518 107.882 51.3455 107.988 51.2391C108.116 51.1328 108.201 51.0477 108.264 50.9626C108.328 50.8775 108.349 50.8137 108.349 50.7712V39.796C108.264 39.4982 108.179 39.1579 108.095 38.7325C108.01 38.3071 107.967 37.9242 107.967 37.5413H112.298C112.298 37.7753 112.276 38.0093 112.213 38.2433C112.17 38.4772 112.064 38.6687 111.894 38.8388C111.873 39.1579 111.852 39.6045 111.831 40.2001C111.831 40.7956 111.809 41.4763 111.788 42.242C111.767 43.0077 111.746 43.8159 111.725 44.6667C111.703 45.5175 111.682 46.3258 111.661 47.0702C111.64 47.8147 111.618 48.4953 111.597 49.1121C111.576 49.729 111.576 50.1756 111.576 50.4734C111.534 51.7071 111.512 52.8556 111.491 53.8978C111.47 54.9401 111.3 55.8121 110.96 56.5566C110.621 57.301 110.09 57.8753 109.326 58.3007C108.583 58.7261 107.436 58.9388 105.887 58.9388C105.781 58.9388 105.611 58.9388 105.356 58.9388C105.165 58.9388 104.953 58.9388 104.719 58.9175C104.507 58.9175 104.295 58.8963 104.082 58.8963C103.934 58.8963 103.87 58.8963 103.849 58.8963C103.7 58.8963 103.53 58.875 103.297 58.8537C103.085 58.8324 102.851 58.7899 102.66 58.7474C102.469 58.7048 102.278 58.6623 102.129 58.6198C101.981 58.5772 101.917 58.5559 101.917 58.5347V55.0252H102.83C103.254 55.6207 103.721 56.0886 104.188 56.4502C104.677 56.8118 105.25 56.982 105.95 56.982C106.439 56.982 106.842 56.8756 107.16 56.6842C107.479 56.4928 107.734 56.2375 107.903 55.9398C108.095 55.642 108.222 55.3017 108.286 54.8975C108.349 54.5147 108.37 54.1105 108.37 53.7277C108.37 53.6213 108.37 53.4512 108.349 53.2385C108.349 53.0045 108.328 52.8344 108.328 52.7493C107.946 53.281 107.543 53.5788 107.16 53.6639C106.778 53.7277 106.29 53.7702 105.717 53.7702C105.186 53.7702 104.762 53.7277 104.422 53.6213C104.082 53.515 103.806 53.3661 103.53 53.1747C103.276 52.9832 103.042 52.7493 102.809 52.4515C102.596 52.1537 102.342 51.8347 102.044 51.4518V39.1366C101.684 38.6048 101.492 38.0518 101.492 37.4775Z" fill="#0A0A2B"/>
<path d="M126.966 37.0095H129.408C129.471 37.0095 129.535 37.0733 129.641 37.1797C129.747 37.286 129.832 37.4137 129.938 37.5625C130.066 37.6902 130.151 37.839 130.214 37.9667C130.278 38.0943 130.299 38.2006 130.299 38.2432V43.7521C130.321 43.6457 130.384 43.5181 130.49 43.3267C130.618 43.1352 130.724 42.9651 130.83 42.8162C130.936 42.6673 131.064 42.5397 131.212 42.4121C131.361 42.2844 131.467 42.2206 131.531 42.2206H134.609L135.84 43.4543V50.7286C135.84 50.7498 135.84 50.7924 135.819 50.8775C135.797 50.9413 135.776 51.0051 135.755 51.0476C135.734 51.0902 135.691 51.154 135.628 51.2178C135.585 51.2816 135.543 51.3241 135.521 51.3454C135.458 51.4092 135.373 51.5156 135.246 51.6857C135.118 51.8346 134.948 52.0048 134.757 52.1962C134.587 52.3664 134.396 52.5578 134.184 52.7705C133.993 52.9619 133.802 53.1533 133.59 53.3448C133.399 53.5362 133.229 53.6851 133.059 53.834C132.91 53.9829 132.804 54.0892 132.741 54.1743C132.592 54.3232 132.422 54.4083 132.231 54.4295C132.04 54.4508 131.828 54.4721 131.573 54.4721H130.894C130.575 54.4721 130.214 54.4508 129.811 54.387C129.408 54.3232 129.026 54.2168 128.644 54.0467C128.261 53.8765 127.922 53.6638 127.646 53.3873C127.349 53.1108 127.2 52.7492 127.2 52.3238C127.2 51.8346 127.2 51.4518 127.2 51.1752C127.2 50.8987 127.2 50.7073 127.2 50.601C127.2 50.4946 127.2 50.4095 127.2 50.367C127.2 50.3245 127.2 50.2606 127.2 50.1756C127.2 50.0692 127.2 49.9416 127.221 49.7714C127.242 49.58 127.264 49.3248 127.264 48.9845C127.264 47.0489 127.242 45.4324 127.221 44.1562C127.2 42.88 127.2 41.8378 127.2 41.0508C127.2 40.2638 127.2 39.7108 127.221 39.3705C127.242 39.0302 127.285 38.86 127.327 38.86C127.221 38.5835 127.136 38.307 127.051 37.9879C127.009 37.6689 126.966 37.3498 126.966 37.0095ZM130.278 51.3454C130.278 51.5156 130.363 51.6645 130.512 51.7921C130.681 51.9197 130.851 52.0473 131.042 52.1749C131.255 52.3026 131.467 52.3876 131.658 52.4727C131.87 52.5578 132.019 52.6003 132.125 52.6003C132.252 52.6003 132.358 52.5791 132.465 52.5152C132.592 52.4514 132.677 52.3876 132.762 52.3025C132.847 52.2175 132.91 52.1111 132.974 52.0048C133.038 51.8984 133.08 51.7921 133.08 51.6857V44.9644C133.08 44.6879 133.017 44.5178 132.889 44.4327C132.762 44.3476 132.634 44.3051 132.507 44.3051H132.189C131.552 44.3051 131.085 44.4965 130.766 44.9006C130.448 45.3048 130.278 45.8365 130.278 46.5171V51.3454Z" fill="#0A0A2B"/>
<path d="M148.174 37.5413H151.103C151.167 37.5413 151.252 37.6052 151.337 37.7115C151.443 37.8179 151.549 37.9455 151.655 38.0944C151.782 38.2433 151.867 38.3709 151.931 38.541C151.995 38.6899 152.037 38.775 152.037 38.8388V49.8991C152.037 50.0906 152.058 50.3033 152.08 50.5798C152.101 50.8563 152.164 51.1115 152.271 51.3455C152.377 51.5794 152.525 51.7921 152.674 51.9836C152.844 52.1537 153.056 52.2601 153.29 52.2601C153.608 52.2601 153.863 52.1963 154.075 52.0686C154.287 51.9198 154.478 51.7709 154.627 51.5794C154.797 51.388 154.903 51.1753 155.009 50.9413C155.094 50.7074 155.179 50.4734 155.243 50.282C155.264 49.9842 155.285 49.5588 155.285 48.9632C155.285 48.3677 155.306 47.7296 155.306 47.0277C155.306 46.5385 155.306 46.0493 155.306 45.5813C155.306 45.1347 155.306 44.688 155.285 44.2626C155.285 43.8372 155.264 43.4544 155.264 43.1353C155.264 42.795 155.264 42.5398 155.264 42.3696C155.264 41.7528 155.221 41.2423 155.158 40.8169C155.094 40.3915 155.009 40.0086 154.924 39.6471C154.839 39.2855 154.754 38.9664 154.669 38.6474C154.606 38.3071 154.563 37.9455 154.563 37.5413H157.514C157.578 37.5413 157.663 37.6052 157.769 37.7115C157.896 37.8179 158.002 37.9455 158.108 38.0944C158.215 38.2433 158.299 38.3709 158.384 38.541C158.469 38.6899 158.512 38.775 158.512 38.8388V52.8769C158.682 53.0471 158.809 53.3023 158.851 53.6001C158.894 53.8979 158.936 54.1744 158.936 54.4509H155.646C155.603 54.4509 155.54 54.4083 155.434 54.3232C155.349 54.2382 155.306 54.1956 155.306 54.1744C155.306 54.0893 155.306 53.9829 155.285 53.8128C155.285 53.6426 155.264 53.4725 155.264 53.3023C155.264 53.1109 155.264 52.962 155.285 52.8131C155.285 52.6642 155.306 52.5579 155.306 52.494C155.03 52.8556 154.797 53.1534 154.563 53.3874C154.351 53.6213 154.117 53.834 153.863 54.0042C153.629 54.1744 153.375 54.2807 153.099 54.3445C152.823 54.4083 152.462 54.4509 152.058 54.4509C151.804 54.4509 151.506 54.4296 151.124 54.3658C150.763 54.302 150.403 54.1956 150.063 54.0467C149.702 53.8766 149.426 53.6852 149.193 53.4299C148.98 53.1747 148.853 52.8556 148.853 52.4728V40.4128C148.853 40.1363 148.81 39.881 148.747 39.6683C148.683 39.4344 148.598 39.2004 148.513 38.9664C148.428 38.7325 148.343 38.4985 148.28 38.2645C148.216 38.0518 148.174 37.7966 148.174 37.5413ZM148.747 32.309L149.362 31.6921L151.655 33.734C151.91 33.968 152.186 34.0744 152.504 34.0744C152.632 34.0744 152.738 34.0318 152.844 33.9255L155.285 31.9899C155.519 31.8623 155.646 31.7985 155.667 31.7985C155.688 31.7985 155.752 31.8623 155.858 31.9899L157.217 33.7128C157.302 33.8191 157.344 33.8829 157.344 33.9042C157.344 33.9467 157.302 33.968 157.238 33.968C157.196 33.968 157.153 33.968 157.089 33.9467C157.026 33.9467 156.941 33.9467 156.856 33.9467C156.516 33.9467 156.24 34.0531 155.986 34.2658L153.629 36.1375C153.396 36.2864 153.226 36.3502 153.099 36.3715C152.992 36.3715 152.886 36.3502 152.759 36.2864C152.653 36.2439 152.525 36.1163 152.377 35.9248L148.747 32.309Z" fill="#0A0A2B"/>
<path d="M137.984 50.7925V41.9017C137.984 41.7103 138.133 41.37 138.43 40.902C138.727 40.4341 139.067 39.9449 139.47 39.477C139.852 38.9878 140.255 38.5624 140.659 38.1795C141.062 37.7967 141.402 37.6052 141.678 37.6052H145.371C145.478 37.6052 145.605 37.6478 145.754 37.7116C145.923 37.7754 146.051 37.8817 146.157 38.0093C146.263 38.137 146.369 38.2646 146.454 38.4135C146.56 38.5624 146.603 38.69 146.603 38.7963V45.5814C146.603 45.8366 146.518 46.0068 146.412 46.2195C146.369 46.3046 146.327 46.3897 146.284 46.496C146.072 46.9639 145.838 47.4106 145.541 47.602C144.501 47.7297 142.654 47.836 141.041 47.6233V48.3678C141.041 48.5379 141.041 48.7081 141.041 48.8782C141.041 49.1973 141.02 49.5163 141.041 49.8354C141.126 51.1328 141.253 51.8135 141.359 52.09C141.678 52.3239 142.845 52.409 143.482 52.409C144.076 52.409 144.501 52.3027 144.798 52.09C145.074 51.8773 145.308 51.622 145.456 51.3668C145.626 51.1116 145.775 50.8563 145.923 50.6224C146.093 50.3884 146.369 50.2608 146.751 50.2608C146.751 51.537 146.39 52.5792 145.69 53.3662C144.989 54.1531 144.034 54.5573 142.782 54.5573C142.23 54.5573 141.678 54.4935 141.126 54.3446C140.595 54.1957 140.086 53.983 139.597 53.6852C139.13 53.3874 138.748 53.0046 138.43 52.5154C138.133 52.0049 137.984 51.4519 137.984 50.7925ZM141.041 45.3262C141.041 45.3474 141.083 45.39 141.147 45.4751L141.763 45.7728C141.996 45.8579 142.166 45.9217 142.272 45.943H142.399C142.803 45.943 143.121 45.7941 143.312 45.5176C143.525 45.2411 143.673 44.922 143.737 44.5605C143.8 44.1989 143.843 43.8373 143.822 43.4544C143.822 43.0716 143.801 42.7738 143.801 42.5611V42.0506C143.801 41.8592 143.801 41.6465 143.779 41.4551C143.758 41.2636 143.758 41.0935 143.758 40.9446V40.6893C143.737 40.5405 143.694 40.3703 143.631 40.1363C143.567 39.9024 143.525 39.7747 143.482 39.7747H141.02V45.3262H141.041Z" fill="#0A0A2B"/>
<path d="M66.8904 37.5413L58.2717 37.5625C58.2717 37.5838 58.3141 37.6901 58.399 37.8603C58.484 38.0305 58.5901 38.2219 58.6962 38.4346C58.8236 38.626 58.9297 38.8175 59.0147 38.9876C59.0996 39.1578 59.142 39.2641 59.142 39.2641L59.2482 53.2597C59.2694 53.3235 59.3119 53.4298 59.3755 53.5574C59.4392 53.6851 59.5029 53.834 59.5666 53.9828C59.6303 54.1317 59.7364 54.2381 59.8426 54.3444C59.9699 54.4508 60.0548 54.4933 60.1398 54.4933H62.9419C62.9419 54.3019 62.8994 54.1105 62.8358 53.9403C62.7721 53.7701 62.6872 53.5787 62.6235 53.4086C62.5598 53.2171 62.4749 53.047 62.39 52.8768C62.305 52.6854 62.2626 52.5152 62.2626 52.3451L62.39 42.9438C62.3475 42.6035 62.3263 42.2632 62.305 41.8803C62.305 41.4974 62.305 41.1359 62.3263 40.8168C62.3475 40.4765 62.39 40.2 62.4749 39.966C62.5598 39.7321 62.6659 39.5832 62.7933 39.5406C62.857 39.5194 62.8994 39.4981 62.9631 39.4555C63.0056 39.4343 63.048 39.413 63.0905 39.413C63.5363 39.413 63.9396 39.5194 64.2793 39.7321C64.6189 39.9235 64.9161 40.1574 65.1709 40.4127C65.4256 40.6467 65.6591 40.8806 65.8502 41.0933C66.0412 41.2848 66.2323 41.3911 66.4021 41.3911C66.4233 41.3911 66.487 41.3911 66.6144 41.3698C66.6356 41.3273 66.6781 41.2848 66.763 41.1997C66.8479 41.1146 66.8904 41.0508 66.8904 41.0295V37.5413Z" fill="#0A0A2B"/>
<path d="M114.145 53.8767C114.038 54.0681 113.996 54.2596 113.996 54.451H117.35L117.966 53.8342V53.6853L117.902 41.0297C117.987 40.6681 118.051 40.3704 118.135 40.1364C118.22 39.9024 118.327 39.7961 118.496 39.7961H122.381C122.105 39.9875 121.893 40.1789 121.702 40.3916C121.532 40.5831 121.383 40.7532 121.256 40.8808C121.15 41.0297 121.023 41.1999 120.874 41.4339L121.065 52.877L121.702 54.1745C121.744 54.1958 121.787 54.2383 121.872 54.3234C121.935 54.4085 121.978 54.451 121.999 54.451H124.95C124.95 54.3872 124.95 54.3447 124.929 54.2808C124.929 54.2383 124.886 54.1745 124.822 54.0894C124.78 54.0043 124.695 53.8767 124.61 53.7491C124.525 53.6002 124.398 53.4088 124.27 53.1535V39.1367C124.334 39.0304 124.398 38.9027 124.483 38.7326C124.568 38.5412 124.631 38.3923 124.716 38.2434C124.801 38.0732 124.865 37.9243 124.886 37.7967C124.929 37.6478 124.95 37.584 124.95 37.5627H118.454C118.39 37.5627 118.284 37.6053 118.114 37.6904C117.966 37.7754 117.753 37.9243 117.52 38.0945C117.286 38.2646 117.01 38.4561 116.713 38.69C116.416 38.9027 116.161 39.158 115.907 39.4132C115.673 39.6685 115.248 39.945 115.057 40.2427L114.972 51.3881C114.972 51.6008 114.951 51.7923 114.93 51.9837C114.909 52.2389 114.845 52.4729 114.739 52.6856C114.633 52.877 114.527 53.0897 114.421 53.2812C114.357 53.4513 114.251 53.664 114.145 53.8767Z" fill="#0A0A2B"/>
<path d="M32.1184 0.744629H2.71717L1.52838 2.33987L2.41997 1.34018H32.1184L33.2435 2.5951L33.2859 13.5703L33.7105 13.8894V2.48876L32.1184 0.744629Z" fill="#0A0A2B"/>
<path d="M34.6234 50.3883L34.4535 2.12708L32.6491 0.106445H1.86808L0.0848999 2.12708L0.297183 50.7925V57.7052L2.10159 59.7258H32.9463L34.687 57.7052V50.4096H34.6234V50.3883ZM33.4558 57.2585L32.3731 58.5134H2.65352L1.52842 57.2585V49.3887V47.8147L2.50493 44.9007L4.09705 40.115L11.1236 19.0366L12.1638 25.0134L17.2374 26.481L22.5444 25.0134L23.7545 19.143L33.3709 47.9423H33.3921L33.4133 53.7915H33.4346V57.2585H33.4558ZM10.508 11.4007C10.6354 11.0817 10.4868 10.7414 10.1683 10.6137C9.99852 10.5499 9.80746 10.5499 9.63764 10.635C9.61641 10.635 9.59518 10.6563 9.57395 10.6776C9.51027 10.7201 9.46781 10.7626 9.40412 10.8264L2.4837 19.9087L1.74071 20.8871V14.9528L2.4837 14.3785L9.51027 8.93343L12.3761 11.4007L2.4837 41.6464L1.74071 43.901V31.7134L10.508 11.4007ZM1.74071 28.5868V22.8439L7.40866 15.4633L1.74071 28.5868ZM15.1995 10.316H13.8408L12.6096 8.93343L14.1805 7.8274L15.1995 10.316ZM15.0933 7.1893L17.0463 5.80676V10.316H16.3882L15.0933 7.1893ZM13.8621 11.4433H20.6339L22.9266 16.6331L23.0752 17.0798L21.6953 23.7372L21.6104 24.1414L17.2374 25.3325L13.0978 24.1414L13.0129 23.6734L11.8454 16.9734L13.8621 11.4433ZM18.5748 10.316H18.1502V6.16835L19.8272 7.33819L18.5748 10.316ZM20.7188 7.95502L22.1199 8.93343L20.8462 10.3372H19.7423L20.7188 7.95502ZM32.5005 19.9087L25.5589 10.8264C25.3466 10.5499 24.9645 10.5074 24.7097 10.7201C24.455 10.9115 24.3913 11.2518 24.5611 11.5284C24.5611 11.6134 24.5611 11.6985 24.6036 11.7836L32.5217 31.2242L33.1161 32.6918C33.1161 32.6918 33.1161 32.7131 33.1374 32.7131V43.9436L32.5217 42.0931L22.4595 11.4007L25.3254 8.93343L32.4793 14.4636L33.0949 14.9315V20.6744L32.5005 19.9087ZM33.0949 22.7163V29.2674L32.4793 27.7785L27.3633 15.2293L32.4793 21.908L33.0949 22.7163ZM33.6893 13.8893L33.2647 13.5703L25.2829 7.402L23.7545 8.72073L17.3435 4.25406L11.0387 8.67819L9.55272 7.402L1.33737 13.7404L1.29491 2.63756V2.59502L1.52842 2.33978L2.71721 0.744541H32.1184L33.7105 2.48867V13.8893H33.6893Z" fill="#0A0A2B"/>
<path d="M30.3352 42.5186H26.6415L28.3186 37.0948L25.474 26.396H22.5657L22.2048 28.4379L17.4921 29.5227L12.8007 28.4167L12.4398 26.3748H9.51029L6.64446 37.0948L8.34273 42.5186H4.62778L2.3988 51.7709H13.8196L17.4921 52.7706L21.2708 51.7709H32.543L30.3352 42.5186ZM17.4709 30.7138L21.9713 29.6929L21.5255 32.309L17.4709 33.3087L13.4375 32.2878L12.9917 29.6929L17.4709 30.7138ZM14.3079 37.2862L17.4921 38.0306L20.6551 37.3075L20.4853 38.3071L20.8887 39.6684L17.4921 40.3703L14.0956 39.6684L14.4989 38.2859L14.3079 37.2862ZM20.8674 36.0525L17.4921 36.8395L14.0956 36.0313L13.671 33.5427L17.4709 34.4998L21.3132 33.564L20.8674 36.0525ZM13.7559 40.7744L17.4921 41.5614L21.2283 40.7957L21.9288 43.2205L17.4709 44.4116L13.0342 43.1992L13.7559 40.7744ZM10.7203 50.7075V46.5598H9.68011V50.7075H7.59974V46.5598H6.55955V50.7075H3.73619L5.45568 43.5608H9.7438L7.72711 37.0522L10.2957 27.3957H11.5482L13.4163 38.2008L12.2275 42.2421L11.0812 38.0944C10.9963 37.8179 10.7203 37.6478 10.4443 37.7329C10.1684 37.8179 9.99854 38.0944 10.0834 38.3709L11.6968 44.284L13.48 50.7075H10.7203ZM20.3792 50.7713L17.4921 51.537L14.5838 50.75L13.947 48.4529L17.4709 49.41L21.016 48.4954L20.3792 50.7713ZM17.4921 48.1976L13.5861 47.1341L12.8007 44.3478L17.4497 45.624L22.1411 44.3903L21.3557 47.1979L17.4921 48.1976ZM27.3633 46.5598V50.7075H25.2829V46.5598H24.2427V50.7075H21.4618L23.245 44.3052L24.8583 38.3922C24.9433 38.1157 24.7734 37.8179 24.4975 37.7541C24.2215 37.669 23.9243 37.8392 23.8606 38.1157L22.7355 42.2633L21.5467 38.2433L23.4148 27.4595H24.6673L27.2359 37.0948L25.2192 43.5821H29.5073L31.2268 50.7075H28.4035V46.5598H27.3633Z" fill="#0A0A2B"/>
<path d="M16.091 14.1873L15.3056 15.0593C14.6051 15.1444 13.947 15.2508 13.4375 15.3358C13.5436 14.7616 14.0956 13.5492 15.4117 12.9536L16.091 14.1873Z" fill="#0A0A2B"/>
<path d="M21.5255 15.3569C21.016 15.2718 20.3792 15.1655 19.6786 15.0804L18.8932 14.187L19.5725 12.9321C20.8886 13.549 21.4194 14.8039 21.5255 15.3569Z" fill="#0A0A2B"/>
<path d="M20.0819 18.0583L17.7893 17.0373L17.4284 16.8884L17.1312 17.0373L14.9872 18.0583H13.4163L14.3291 23.5033H15.4966L17.4709 22.844L19.6149 23.5033H20.7825L21.7802 18.0583H20.0819ZM19.7848 22.3335H19.7635L17.4284 21.6316L15.3056 22.3335L14.7961 19.2281H15.2419L17.4496 18.1646L19.8484 19.2281H20.3791L19.7848 22.3335Z" fill="#0A0A2B"/>
</svg>
